{
	"asset":{
		"version":"2.0",
		"generator":"Created using the official Cinema 4D glTF Exporter 1.000x284978"
	},
	"scenes":[{
		"nodes":[0,
		1,
		2]
	}],
	"nodes":[{
		"name":"Cylinder_2",
		"mesh":0,
		"translation":[0.0,
		0.0,
		0.0],
		"rotation":[0.0,
		0.0,
		0.9996790885925293,
		-0.025332486256957055],
		"scale":[1.0,
		1.0,
		1.0]
	},
	{
		"name":"Cylinder_2.2",
		"mesh":1,
		"translation":[0.0,
		0.0,
		0.0],
		"rotation":[0.0,
		0.0,
		0.9996790885925293,
		-0.025332486256957055],
		"scale":[1.0,
		1.0,
		1.0]
	},
	{
		"name":"Cylinder_2.1",
		"mesh":2,
		"translation":[0.0,
		0.0,
		0.0],
		"rotation":[0.0,
		0.0,
		0.9996790885925293,
		-0.025332486256957055],
		"scale":[1.0,
		1.0,
		1.0]
	}],
	"meshes":[{
		"name":"Cylinder_2",
		"primitives":[{
			"attributes":{
				"POSITION":1,
				"NORMAL":2,
				"TEXCOORD_0":3,
				"COLOR_0":4
			},
			"indices":0,
			"material":0
		}]
	},
	{
		"name":"Cylinder_2.2",
		"primitives":[{
			"attributes":{
				"POSITION":6,
				"NORMAL":7,
				"TEXCOORD_0":8,
				"COLOR_0":9
			},
			"indices":5,
			"material":1
		}]
	},
	{
		"name":"Cylinder_2.1",
		"primitives":[{
			"attributes":{
				"POSITION":11,
				"NORMAL":12,
				"TEXCOORD_0":13,
				"COLOR_0":14
			},
			"indices":10,
			"material":2
		}]
	}],
	"accessors":[{
		"bufferView":0,
		"min":[0],
		"type":"SCALAR",
		"componentType":5123,
		"count":384,
		"byteOffset":0,
		"max":[255]
	},
	{
		"bufferView":1,
		"min":[-302.6817932128906,
		-489.08587646484377,
		137.84124755859376],
		"type":"VEC3",
		"componentType":5126,
		"count":256,
		"byteOffset":0,
		"max":[302.6817932128906,
		116.27750396728516,
		187.9133758544922]
	},
	{
		"bufferView":1,
		"min":[-0.999957263469696,
		-0.999957263469696,
		-0.010875260457396508],
		"type":"VEC3",
		"componentType":5126,
		"count":256,
		"byteOffset":12,
		"max":[0.999957263469696,
		0.999957263469696,
		0.000031251063774107027]
	},
	{
		"bufferView":1,
		"min":[0.662757933139801,
		0.8492422103881836],
		"type":"VEC2",
		"componentType":5126,
		"count":256,
		"byteOffset":24,
		"max":[0.7201277017593384,
		0.9308083057403565]
	},
	{
		"bufferView":2,
		"min":[1.0,
		1.0,
		1.0,
		1.0],
		"type":"VEC4",
		"componentType":5126,
		"count":256,
		"byteOffset":0,
		"max":[1.0,
		1.0,
		1.0,
		1.0]
	},
	{
		"bufferView":3,
		"min":[0],
		"type":"SCALAR",
		"componentType":5123,
		"count":2496,
		"byteOffset":0,
		"max":[448]
	},
	{
		"bufferView":4,
		"min":[-302.6806945800781,
		-489.0846252441406,
		187.90512084960938],
		"type":"VEC3",
		"componentType":5126,
		"count":449,
		"byteOffset":0,
		"max":[302.6806945800781,
		116.27642059326172,
		187.91366577148438]
	},
	{
		"bufferView":4,
		"min":[-0.0001250000059371814,
		-0.0001250000059371814,
		-1.0],
		"type":"VEC3",
		"componentType":5126,
		"count":449,
		"byteOffset":12,
		"max":[0.00003125000148429535,
		0.0,
		-1.0]
	},
	{
		"bufferView":4,
		"min":[0.00009997375309467316,
		0.00009995698928833008],
		"type":"VEC2",
		"componentType":5126,
		"count":449,
		"byteOffset":24,
		"max":[0.9998999834060669,
		0.9998999834060669]
	},
	{
		"bufferView":5,
		"min":[1.0,
		1.0,
		1.0,
		1.0],
		"type":"VEC4",
		"componentType":5126,
		"count":449,
		"byteOffset":0,
		"max":[1.0,
		1.0,
		1.0,
		1.0]
	},
	{
		"bufferView":6,
		"min":[0],
		"type":"SCALAR",
		"componentType":5123,
		"count":2496,
		"byteOffset":0,
		"max":[448]
	},
	{
		"bufferView":7,
		"min":[-302.6850280761719,
		-489.08935546875,
		137.84466552734376],
		"type":"VEC3",
		"componentType":5126,
		"count":449,
		"byteOffset":0,
		"max":[302.68505859375,
		116.28074645996094,
		137.86373901367188]
	},
	{
		"bufferView":7,
		"min":[-0.00009375000081490725,
		0.0,
		0.9999998807907105],
		"type":"VEC3",
		"componentType":5126,
		"count":449,
		"byteOffset":12,
		"max":[0.00046876457054167986,
		0.0003437607374507934,
		1.0]
	},
	{
		"bufferView":7,
		"min":[0.00009997468441724777,
		0.00009995698928833008],
		"type":"VEC2",
		"componentType":5126,
		"count":449,
		"byteOffset":24,
		"max":[0.9998999834060669,
		0.9998999834060669]
	},
	{
		"bufferView":8,
		"min":[0.0,
		0.0,
		0.0,
		1.0],
		"type":"VEC4",
		"componentType":5126,
		"count":449,
		"byteOffset":0,
		"max":[0.9921568632125855,
		0.9921568632125855,
		0.9921568632125855,
		1.0]
	}],
	"bufferViews":[{
		"buffer":0,
		"byteOffset":0,
		"byteLength":768,
		"target":34963
	},
	{
		"buffer":0,
		"byteOffset":768,
		"byteLength":8192,
		"target":34962,
		"byteStride":32
	},
	{
		"buffer":0,
		"byteOffset":8960,
		"byteLength":4096,
		"target":34962
	},
	{
		"buffer":1,
		"byteOffset":0,
		"byteLength":4992,
		"target":34963
	},
	{
		"buffer":1,
		"byteOffset":4992,
		"byteLength":14368,
		"target":34962,
		"byteStride":32
	},
	{
		"buffer":1,
		"byteOffset":19360,
		"byteLength":7184,
		"target":34962
	},
	{
		"buffer":2,
		"byteOffset":0,
		"byteLength":4992,
		"target":34963
	},
	{
		"buffer":2,
		"byteOffset":4992,
		"byteLength":14368,
		"target":34962,
		"byteStride":32
	},
	{
		"buffer":2,
		"byteOffset":19360,
		"byteLength":7184,
		"target":34962
	}],
	"buffers":[{
		"uri":"data:application/octet-stream;base64,",
		"byteLength":13056
	},
	{
		"uri":"data:application/octet-stream;base64,",
		"byteLength":26544
	},
	{
		"uri":"data:application/octet-stream;base64,",
		"byteLength":26544
	}],
	"materials":[{
		"pbrMetallicRoughness":{
			"baseColorFactor":[0.8,
			0.8,
			0.8,
			1.0],
			"metallicFactor":1.0,
			"roughnessFactor":0.3
		},
		"emissiveFactor":[0.0,
		0.0,
		0.0],
		"alphaMode":"OPAQUE",
		"doubleSided":true,
		"name":"PBR"
	},
	{
		"pbrMetallicRoughness":{
			"baseColorFactor":[0.8,
			0.8,
			0.8,
			1.0],
			"metallicFactor":1.0,
			"roughnessFactor":0.3
		},
		"emissiveFactor":[0.0,
		0.0,
		0.0],
		"alphaMode":"OPAQUE",
		"doubleSided":true,
		"name":"PBR.2"
	},
	{
		"pbrMetallicRoughness":{
			"baseColorFactor":[0.8,
			0.8,
			0.8,
			1.0],
			"metallicFactor":1.0,
			"roughnessFactor":0.3
		},
		"emissiveFactor":[0.0,
		0.0,
		0.0],
		"alphaMode":"OPAQUE",
		"doubleSided":true,
		"name":"PBR.1"
	}]
}