{
    "asset": {
        "version": "2.0",
        "generator": "Open Asset Import Library (assimp v3.1.256107357)"
    },
    "accessors": [
        {
            "bufferView": 0,
            "byteOffset": 0,
            "componentType": 5126,
            "count": 449,
            "type": "VEC3",
            "max": [
                3.0268068313598635,
                8.618936538696289,
                5.1369171142578129
            ],
            "min": [
                -3.0268068313598635,
                2.56532621383667,
                5.136914253234863
            ]
        },
        {
            "bufferView": 1,
            "byteOffset": 0,
            "componentType": 5126,
            "count": 449,
            "type": "VEC3",
            "max": [
                0.000006236728040676098,
                0.000006236577064555604,
                1.0
            ],
            "min": [
                -0.000006236596618691692,
                -0.000006236684384930413,
                1.0
            ]
        },
        {
            "bufferView": 2,
            "byteOffset": 0,
            "componentType": 5126,
            "count": 449,
            "type": "VEC4",
            "max": [
                0.9997327923774719,
                0.9997323751449585,
                0.9997329115867615,
                0.9997327923774719
            ],
            "min": [
                -1.0,
                -1.0,
                -1.0,
                -1.0
            ]
        },
        {
            "bufferView": 3,
            "byteOffset": 0,
            "componentType": 5126,
            "count": 449,
            "type": "VEC2",
            "max": [
                0.9998999834060669,
                0.9998999834060669
            ],
            "min": [
                0.00009997375309467316,
                0.00009995698928833008
            ]
        },
        {
            "bufferView": 4,
            "byteOffset": 0,
            "componentType": 5123,
            "count": 2496,
            "type": "SCALAR",
            "max": [
                448.0
            ],
            "min": [
                0.0
            ]
        },
        {
            "bufferView": 5,
            "byteOffset": 0,
            "componentType": 5126,
            "count": 256,
            "type": "VEC3",
            "max": [
                3.026817798614502,
                8.618948936462403,
                5.136914253234863
            ],
            "min": [
                -3.026817798614502,
                2.5653154850006105,
                4.636415958404541
            ]
        },
        {
            "bufferView": 6,
            "byteOffset": 0,
            "componentType": 5126,
            "count": 256,
            "type": "VEC3",
            "max": [
                0.9999583959579468,
                0.9999583959579468,
                0.000052185689128236848
            ],
            "min": [
                -0.9999583959579468,
                -0.9999583959579468,
                -0.000049444352043792608
            ]
        },
        {
            "bufferView": 7,
            "byteOffset": 0,
            "componentType": 5126,
            "count": 256,
            "type": "VEC4",
            "max": [
                0.9410194158554077,
                0.9427303671836853,
                0.9394556283950806,
                0.9410194158554077
            ],
            "min": [
                -1.0,
                -1.0,
                -1.0,
                -1.0
            ]
        },
        {
            "bufferView": 8,
            "byteOffset": 0,
            "componentType": 5126,
            "count": 256,
            "type": "VEC2",
            "max": [
                0.7201277017593384,
                0.15075773000717164
            ],
            "min": [
                0.662757933139801,
                0.06919169425964356
            ]
        },
        {
            "bufferView": 9,
            "byteOffset": 0,
            "componentType": 5123,
            "count": 384,
            "type": "SCALAR",
            "max": [
                255.0
            ],
            "min": [
                0.0
            ]
        },
        {
            "bufferView": 10,
            "byteOffset": 0,
            "componentType": 5126,
            "count": 449,
            "type": "VEC3",
            "max": [
                3.026850461959839,
                8.61898422241211,
                4.636417865753174
            ],
            "min": [
                -3.0268502235412599,
                2.5652828216552736,
                4.636415958404541
            ]
        },
        {
            "bufferView": 11,
            "byteOffset": 0,
            "componentType": 5126,
            "count": 449,
            "type": "VEC3",
            "max": [
                0.000004176976744929561,
                0.0000041767239054024689,
                -1.0
            ],
            "min": [
                -0.0000041769881136133339,
                -0.000004176651145826327,
                -1.0
            ]
        },
        {
            "bufferView": 12,
            "byteOffset": 0,
            "componentType": 5126,
            "count": 449,
            "type": "VEC4",
            "max": [
                0.0000010733551789599006,
                7.101083951965848e-7,
                6.03793125719676e-7,
                0.0000010733551789599006
            ],
            "min": [
                -1.0,
                -1.0,
                -1.0,
                -1.0
            ]
        },
        {
            "bufferView": 13,
            "byteOffset": 0,
            "componentType": 5126,
            "count": 449,
            "type": "VEC2",
            "max": [
                0.9998999834060669,
                0.9998999834060669
            ],
            "min": [
                0.00009997375309467316,
                0.00009995698928833008
            ]
        },
        {
            "bufferView": 14,
            "byteOffset": 0,
            "componentType": 5123,
            "count": 2496,
            "type": "SCALAR",
            "max": [
                448.0
            ],
            "min": [
                0.0
            ]
        }
    ],
    "buffers": [
        {
            "byteLength": 66144,
            "uri": "coin.bin"
        }
    ],
    "bufferViews": [
        {
            "buffer": 0,
            "byteOffset": 0,
            "byteLength": 5388,
            "target": 34962
        },
        {
            "buffer": 0,
            "byteOffset": 5388,
            "byteLength": 5388,
            "target": 34962
        },
        {
            "buffer": 0,
            "byteOffset": 10776,
            "byteLength": 7184,
            "target": 34962
        },
        {
            "buffer": 0,
            "byteOffset": 17960,
            "byteLength": 3592,
            "target": 34962
        },
        {
            "buffer": 0,
            "byteOffset": 21552,
            "byteLength": 4992,
            "target": 34963
        },
        {
            "buffer": 0,
            "byteOffset": 26544,
            "byteLength": 3072,
            "target": 34962
        },
        {
            "buffer": 0,
            "byteOffset": 29616,
            "byteLength": 3072,
            "target": 34962
        },
        {
            "buffer": 0,
            "byteOffset": 32688,
            "byteLength": 4096,
            "target": 34962
        },
        {
            "buffer": 0,
            "byteOffset": 36784,
            "byteLength": 2048,
            "target": 34962
        },
        {
            "buffer": 0,
            "byteOffset": 38832,
            "byteLength": 768,
            "target": 34963
        },
        {
            "buffer": 0,
            "byteOffset": 39600,
            "byteLength": 5388,
            "target": 34962
        },
        {
            "buffer": 0,
            "byteOffset": 44988,
            "byteLength": 5388,
            "target": 34962
        },
        {
            "buffer": 0,
            "byteOffset": 50376,
            "byteLength": 7184,
            "target": 34962
        },
        {
            "buffer": 0,
            "byteOffset": 57560,
            "byteLength": 3592,
            "target": 34962
        },
        {
            "buffer": 0,
            "byteOffset": 61152,
            "byteLength": 4992,
            "target": 34963
        }
    ],
    "materials": [
        {
            "name": "Cylinder_20",
            "pbrMetallicRoughness": {
                "baseColorFactor": [
                    0.5058823823928833,
                    0.9960784316062927,
                    0.7019608020782471,
                    1.0
                ],
                "metallicFactor": 0.0
            }
        },
        {
            "name": "Cylinder_21",
            "pbrMetallicRoughness": {
                "baseColorFactor": [
                    0.9882352948188782,
                    0.9411764740943909,
                    0.5137255191802979,
                    1.0
                ],
                "metallicFactor": 0.0
            }
        },
        {
            "name": "Cylinder_22",
            "pbrMetallicRoughness": {
                "baseColorFactor": [
                    0.8235294222831726,
                    0.5058823823928833,
                    0.9960784316062927,
                    1.0
                ],
                "metallicFactor": 0.0
            }
        }
    ],
    "meshes": [
        {
            "name": "Cylinder_2",
            "primitives": [
                {
                    "mode": 4,
                    "material": 0,
                    "indices": 4,
                    "attributes": {
                        "POSITION": 0,
                        "NORMAL": 1,
                        "TANGENT": 2,
                        "TEXCOORD_0": 3
                    }
                },
                {
                    "mode": 4,
                    "material": 1,
                    "indices": 9,
                    "attributes": {
                        "POSITION": 5,
                        "NORMAL": 6,
                        "TANGENT": 7,
                        "TEXCOORD_0": 8
                    }
                },
                {
                    "mode": 4,
                    "material": 2,
                    "indices": 14,
                    "attributes": {
                        "POSITION": 10,
                        "NORMAL": 11,
                        "TANGENT": 12,
                        "TEXCOORD_0": 13
                    }
                }
            ]
        }
    ],
    "nodes": [
        {
            "name": "RootNode",
            "matrix": [
                0.009999999776482582,
                0.0,
                0.0,
                0.0,
                0.0,
                0.009999999776482582,
                0.0,
                0.0,
                0.0,
                0.0,
                0.009999999776482582,
                0.0,
                0.0,
                0.0,
                0.0,
                1.0
            ],
            "children": [
                1
            ]
        },
        {
            "name": "Cylinder_2",
            "mesh": 0
        }
    ],
    "scenes": [
        {
            "nodes": [
                0
            ]
        }
    ],
    "scene": 0
}